<?xml version="1.0" encoding="utf-8"?>
<!-- Generator: Adobe Illustrator 16.0.0, SVG Export Plug-In . SVG Version: 6.00 Build 0)  -->
<!DOCTYPE svg PUBLIC "-//W3C//DTD SVG 1.1//EN" "http://www.w3.org/Graphics/SVG/1.1/DTD/svg11.dtd">
<svg version="1.1" id="Capa_1" xmlns="http://www.w3.org/2000/svg" xmlns:xlink="http://www.w3.org/1999/xlink" x="0px" y="0px"
	 width="460.1px" height="460px" viewBox="0 0 460.1 460" style="enable-background:new 0 0 460.1 460;" xml:space="preserve">
<rect style="fill:#FFEB3B;" width="460" height="460"/>
<polygon style="fill:#00BFA5;" points="0.1,0 0.1,0 234,230 460.1,0 "/>
<path style="opacity:0.5;fill:#00BFA5;" d="M0,0c0,0,0,1,0,1.7C0,127.8,103,230,230,230c127,0,230-102.2,230-228.3
	c0-0.7,0-1.8,0-1.8H0z"/>
<g id="Capa_2">
</g>
<polygon style="fill:#FF5E19;" points="0.1,460 0.1,460 234,230 460.1,460 "/>
<path style="opacity:0.5;fill:#FF5E19;" d="M0,460c0,0,0-1.3,0-1.9c0-126,103-228,230-228c127,0,230,102,230,228c0,0.7,0,2,0,2H0z"
	/>
</svg>
